<svg viewBox="-16 -32 880 192" width="880" height="192" xmlns="http://www.w3.org/2000/svg"><style>@keyframes c0{7.31%{fill:var(--c1)}7.33%,to{fill:var(--ce)}}@keyframes c1{9.26%{fill:var(--c1)}9.28%,to{fill:var(--ce)}}@keyframes c2{9.75%{fill:var(--c1)}9.77%,to{fill:var(--ce)}}@keyframes c3{89.75%{fill:var(--c4)}89.77%,to{fill:var(--ce)}}@keyframes c4{18.53%{fill:var(--c1)}18.55%,to{fill:var(--ce)}}@keyframes c5{17.55%{fill:var(--c1)}17.57%,to{fill:var(--ce)}}@keyframes c6{13.16%{fill:var(--c1)}13.18%,to{fill:var(--ce)}}@keyframes c7{17.06%{fill:var(--c1)}17.08%,to{fill:var(--ce)}}@keyframes c8{14.62%{fill:var(--c1)}14.64%,to{fill:var(--ce)}}@keyframes c9{67.79%{fill:var(--c2)}67.81%,to{fill:var(--ce)}}@keyframes ca{72.67%{fill:var(--c4)}72.69%,to{fill:var(--ce)}}@keyframes cb{23.4%{fill:var(--c1)}23.42%,to{fill:var(--ce)}}@keyframes cc{27.31%{fill:var(--c1)}27.33%,to{fill:var(--ce)}}@keyframes cd{60.48%{fill:var(--c2)}60.5%,to{fill:var(--ce)}}@keyframes ce{76.09%{fill:var(--c4)}76.11%,to{fill:var(--ce)}}@keyframes cf{58.53%{fill:var(--c2)}58.55%,to{fill:var(--ce)}}@keyframes cg{78.04%{fill:var(--c4)}78.06%,to{fill:var(--ce)}}@keyframes ch{79.01%{fill:var(--c4)}79.03%,to{fill:var(--ce)}}@keyframes ci{57.06%{fill:var(--c2)}57.08%,to{fill:var(--ce)}}@keyframes cj{33.16%{fill:var(--c1)}33.18%,to{fill:var(--ce)}}@keyframes ck{36.58%{fill:var(--c1)}36.6%,to{fill:var(--ce)}}@keyframes cl{37.06%{fill:var(--c1)}37.08%,to{fill:var(--ce)}}@keyframes cm{44.87%{fill:var(--c1)}44.89%,to{fill:var(--ce)}}@keyframes cn{39.01%{fill:var(--c1)}39.03%,to{fill:var(--ce)}}@keyframes co{41.94%{fill:var(--c1)}41.96%,to{fill:var(--ce)}}@keyframes cp{40.48%{fill:var(--c1)}40.5%,to{fill:var(--ce)}}@keyframes cq{48.77%{fill:var(--c2)}48.79%,to{fill:var(--ce)}}@keyframes cr{48.28%{fill:var(--c1)}48.3%,to{fill:var(--ce)}}@keyframes u0{7.31%{transform:scale(0,1)}7.33%,9.26%{transform:scale(.06,1)}9.28%,9.75%{transform:scale(.11,1)}13.16%,9.77%{transform:scale(.17,1)}13.18%,14.62%{transform:scale(.22,1)}14.64%,17.06%{transform:scale(.28,1)}17.08%,17.55%{transform:scale(.33,1)}17.57%,18.53%{transform:scale(.39,1)}18.55%,23.4%{transform:scale(.44,1)}23.42%,27.31%{transform:scale(.5,1)}27.33%,33.16%{transform:scale(.56,1)}33.18%,36.58%{transform:scale(.61,1)}36.6%,37.06%{transform:scale(.67,1)}37.08%,39.01%{transform:scale(.72,1)}39.03%,40.48%{transform:scale(.78,1)}40.5%,41.94%{transform:scale(.83,1)}41.96%,44.87%{transform:scale(.89,1)}44.89%,48.28%{transform:scale(.94,1)}48.3%,to{transform:scale(1,1)}}@keyframes u1{48.77%{transform:scale(0,1)}48.79%,57.06%{transform:scale(.2,1)}57.08%,58.53%{transform:scale(.4,1)}58.55%,60.48%{transform:scale(.6,1)}60.5%,67.79%{transform:scale(.8,1)}67.81%,to{transform:scale(1,1)}}@keyframes u2{72.67%{transform:scale(0,1)}72.69%,76.09%{transform:scale(.2,1)}76.11%,78.04%{transform:scale(.4,1)}78.06%,79.01%{transform:scale(.6,1)}79.03%,89.75%{transform:scale(.8,1)}89.77%,to{transform:scale(1,1)}}@keyframes s0{0%,99.51%{transform:translate(0,-16px)}.49%{transform:translate(0,0)}6.83%{transform:translate(208px,0)}7.32%{transform:translate(208px,16px)}8.29%{transform:translate(240px,16px)}9.76%{transform:translate(240px,64px)}14.15%{transform:translate(384px,64px)}14.63%{transform:translate(384px,80px)}15.12%{transform:translate(368px,80px)}17.07%{transform:translate(368px,16px)}18.54%{transform:translate(320px,16px)}19.02%{transform:translate(320px,0)}22.44%{transform:translate(432px,0)}22.93%{transform:translate(432px,16px)}24.88%{transform:translate(496px,16px)}27.32%{transform:translate(496px,96px)}28.78%,79.51%{transform:translate(544px,96px)}29.27%{transform:translate(544px,80px)}31.22%{transform:translate(608px,80px)}33.17%{transform:translate(608px,16px)}36.59%{transform:translate(720px,16px)}37.07%{transform:translate(720px,32px)}38.54%,41.46%{transform:translate(768px,32px)}39.02%{transform:translate(768px,16px)}40%{transform:translate(800px,16px)}40.49%{transform:translate(800px,32px)}41.95%{transform:translate(768px,48px)}43.41%{transform:translate(720px,48px)}44.88%{transform:translate(720px,96px)}48.29%{transform:translate(832px,96px)}49.27%{transform:translate(832px,64px)}57.07%{transform:translate(576px,64px)}58.05%{transform:translate(576px,32px)}58.54%{transform:translate(560px,32px)}59.02%{transform:translate(560px,16px)}59.51%{transform:translate(544px,16px)}60%{transform:translate(544px,0)}62.44%{transform:translate(464px,0)}62.93%{transform:translate(464px,16px)}65.37%{transform:translate(384px,16px)}67.8%{transform:translate(384px,96px)}69.76%{transform:translate(448px,96px)}72.68%{transform:translate(448px,0)}76.1%{transform:translate(560px,0)}79.02%{transform:translate(560px,96px)}80.98%{transform:translate(544px,48px)}95.12%{transform:translate(80px,48px)}96.59%{transform:translate(80px,0)}97.56%{transform:translate(48px,0)}98.05%{transform:translate(48px,-16px)}}@keyframes s1{0%,99.51%{transform:translate(16px,-16px)}.49%{transform:translate(0,-16px)}.98%{transform:translate(0,0)}7.32%{transform:translate(208px,0)}7.8%{transform:translate(208px,16px)}8.78%{transform:translate(240px,16px)}10.24%{transform:translate(240px,64px)}14.63%{transform:translate(384px,64px)}15.12%{transform:translate(384px,80px)}15.61%{transform:translate(368px,80px)}17.56%{transform:translate(368px,16px)}19.02%{transform:translate(320px,16px)}19.51%{transform:translate(320px,0)}22.93%{transform:translate(432px,0)}23.41%{transform:translate(432px,16px)}25.37%{transform:translate(496px,16px)}27.8%{transform:translate(496px,96px)}29.27%,80%{transform:translate(544px,96px)}29.76%{transform:translate(544px,80px)}31.71%{transform:translate(608px,80px)}33.66%{transform:translate(608px,16px)}37.07%{transform:translate(720px,16px)}37.56%{transform:translate(720px,32px)}39.02%,41.95%{transform:translate(768px,32px)}39.51%{transform:translate(768px,16px)}40.49%{transform:translate(800px,16px)}40.98%{transform:translate(800px,32px)}42.44%{transform:translate(768px,48px)}43.9%{transform:translate(720px,48px)}45.37%{transform:translate(720px,96px)}48.78%{transform:translate(832px,96px)}49.76%{transform:translate(832px,64px)}57.56%{transform:translate(576px,64px)}58.54%{transform:translate(576px,32px)}59.02%{transform:translate(560px,32px)}59.51%{transform:translate(560px,16px)}60%{transform:translate(544px,16px)}60.49%{transform:translate(544px,0)}62.93%{transform:translate(464px,0)}63.41%{transform:translate(464px,16px)}65.85%{transform:translate(384px,16px)}68.29%{transform:translate(384px,96px)}70.24%{transform:translate(448px,96px)}73.17%{transform:translate(448px,0)}76.59%{transform:translate(560px,0)}79.51%{transform:translate(560px,96px)}81.46%{transform:translate(544px,48px)}95.61%{transform:translate(80px,48px)}97.07%{transform:translate(80px,0)}98.05%{transform:translate(48px,0)}98.54%{transform:translate(48px,-16px)}}@keyframes s2{0%,99.51%{transform:translate(32px,-16px)}.98%{transform:translate(0,-16px)}1.46%{transform:translate(0,0)}7.8%{transform:translate(208px,0)}8.29%{transform:translate(208px,16px)}9.27%{transform:translate(240px,16px)}10.73%{transform:translate(240px,64px)}15.12%{transform:translate(384px,64px)}15.61%{transform:translate(384px,80px)}16.1%{transform:translate(368px,80px)}18.05%{transform:translate(368px,16px)}19.51%{transform:translate(320px,16px)}20%{transform:translate(320px,0)}23.41%{transform:translate(432px,0)}23.9%{transform:translate(432px,16px)}25.85%{transform:translate(496px,16px)}28.29%{transform:translate(496px,96px)}29.76%,80.49%{transform:translate(544px,96px)}30.24%{transform:translate(544px,80px)}32.2%{transform:translate(608px,80px)}34.15%{transform:translate(608px,16px)}37.56%{transform:translate(720px,16px)}38.05%{transform:translate(720px,32px)}39.51%,42.44%{transform:translate(768px,32px)}40%{transform:translate(768px,16px)}40.98%{transform:translate(800px,16px)}41.46%{transform:translate(800px,32px)}42.93%{transform:translate(768px,48px)}44.39%{transform:translate(720px,48px)}45.85%{transform:translate(720px,96px)}49.27%{transform:translate(832px,96px)}50.24%{transform:translate(832px,64px)}58.05%{transform:translate(576px,64px)}59.02%{transform:translate(576px,32px)}59.51%{transform:translate(560px,32px)}60%{transform:translate(560px,16px)}60.49%{transform:translate(544px,16px)}60.98%{transform:translate(544px,0)}63.41%{transform:translate(464px,0)}63.9%{transform:translate(464px,16px)}66.34%{transform:translate(384px,16px)}68.78%{transform:translate(384px,96px)}70.73%{transform:translate(448px,96px)}73.66%{transform:translate(448px,0)}77.07%{transform:translate(560px,0)}80%{transform:translate(560px,96px)}81.95%{transform:translate(544px,48px)}96.1%{transform:translate(80px,48px)}97.56%{transform:translate(80px,0)}98.54%{transform:translate(48px,0)}99.02%{transform:translate(48px,-16px)}}@keyframes s3{0%,99.51%{transform:translate(48px,-16px)}1.46%{transform:translate(0,-16px)}1.95%{transform:translate(0,0)}8.29%{transform:translate(208px,0)}8.78%{transform:translate(208px,16px)}9.76%{transform:translate(240px,16px)}11.22%{transform:translate(240px,64px)}15.61%{transform:translate(384px,64px)}16.1%{transform:translate(384px,80px)}16.59%{transform:translate(368px,80px)}18.54%{transform:translate(368px,16px)}20%{transform:translate(320px,16px)}20.49%{transform:translate(320px,0)}23.9%{transform:translate(432px,0)}24.39%{transform:translate(432px,16px)}26.34%{transform:translate(496px,16px)}28.78%{transform:translate(496px,96px)}30.24%,80.98%{transform:translate(544px,96px)}30.73%{transform:translate(544px,80px)}32.68%{transform:translate(608px,80px)}34.63%{transform:translate(608px,16px)}38.05%{transform:translate(720px,16px)}38.54%{transform:translate(720px,32px)}40%,42.93%{transform:translate(768px,32px)}40.49%{transform:translate(768px,16px)}41.46%{transform:translate(800px,16px)}41.95%{transform:translate(800px,32px)}43.41%{transform:translate(768px,48px)}44.88%{transform:translate(720px,48px)}46.34%{transform:translate(720px,96px)}49.76%{transform:translate(832px,96px)}50.73%{transform:translate(832px,64px)}58.54%{transform:translate(576px,64px)}59.51%{transform:translate(576px,32px)}60%{transform:translate(560px,32px)}60.49%{transform:translate(560px,16px)}60.98%{transform:translate(544px,16px)}61.46%{transform:translate(544px,0)}63.9%{transform:translate(464px,0)}64.39%{transform:translate(464px,16px)}66.83%{transform:translate(384px,16px)}69.27%{transform:translate(384px,96px)}71.22%{transform:translate(448px,96px)}74.15%{transform:translate(448px,0)}77.56%{transform:translate(560px,0)}80.49%{transform:translate(560px,96px)}82.44%{transform:translate(544px,48px)}96.59%{transform:translate(80px,48px)}98.05%{transform:translate(80px,0)}99.02%{transform:translate(48px,0)}}:root{--cb:#1b1f230a;--cs:purple;--ce:#ebedf0;--c0:#ebedf0;--c1:#9be9a8;--c2:#40c463;--c3:#30a14e;--c4:#216e39}.c{shape-rendering:geometricPrecision;rx:2;ry:2;fill:var(--ce);stroke-width:1px;stroke:var(--cb);animation:none 20500ms linear infinite}.c.c0,.c.c1,.c.c2{fill:var(--c1);animation-name:c0}.c.c1,.c.c2{animation-name:c1}.c.c2{animation-name:c2}.c.c3{fill:var(--c4);animation-name:c3}.c.c4,.c.c5{fill:var(--c1);animation-name:c4}.c.c5{animation-name:c5}.c.c6,.c.c7,.c.c8{fill:var(--c1);animation-name:c6}.c.c7,.c.c8{animation-name:c7}.c.c8{animation-name:c8}.c.c9{fill:var(--c2);animation-name:c9}.c.ca{fill:var(--c4);animation-name:ca}.c.cb,.c.cc{fill:var(--c1);animation-name:cb}.c.cc{animation-name:cc}.c.cd{fill:var(--c2);animation-name:cd}.c.ce{fill:var(--c4);animation-name:ce}.c.cf{fill:var(--c2);animation-name:cf}.c.cg,.c.ch{fill:var(--c4);animation-name:cg}.c.ch{animation-name:ch}.c.ci{fill:var(--c2);animation-name:ci}.c.cj{fill:var(--c1);animation-name:cj}.c.ck,.c.cl,.c.cm{fill:var(--c1);animation-name:ck}.c.cl,.c.cm{animation-name:cl}.c.cm{animation-name:cm}.c.cn,.c.co,.c.cp{fill:var(--c1);animation-name:cn}.c.co,.c.cp{animation-name:co}.c.cp{animation-name:cp}.c.cq{fill:var(--c2);animation-name:cq}.c.cr{fill:var(--c1);animation-name:cr}.s,.u{animation:none linear 20500ms infinite}.u,.u.u0{transform-origin:0 0}.u{transform:scale(0,1)}.u.u0{fill:var(--c1);animation-name:u0}.u.u1{fill:var(--c2);animation-name:u1;transform-origin:545.1px 0}.u.u2{fill:var(--c4);animation-name:u2;transform-origin:696.6px 0}.s{shape-rendering:geometricPrecision;fill:var(--cs)}.s.s0{transform:translate(0,-16px);animation-name:s0}.s.s1{transform:translate(16px,-16px);animation-name:s1}.s.s2{transform:translate(32px,-16px);animation-name:s2}.s.s3{transform:translate(48px,-16px);animation-name:s3}</style><rect class="c" x="2" y="2" width="12" height="12"/><rect class="c" x="2" y="18" width="12" height="12"/><rect class="c" x="2" y="34" width="12" height="12"/><rect class="c" x="2" y="50" width="12" height="12"/><rect class="c" x="2" y="66" width="12" height="12"/><rect class="c" x="2" y="82" width="12" height="12"/><rect class="c" x="2" y="98" width="12" height="12"/><rect class="c" x="18" y="2" width="12" height="12"/><rect class="c" x="18" y="18" width="12" height="12"/><rect class="c" x="18" y="34" width="12" height="12"/><rect class="c" x="18" y="50" width="12" height="12"/><rect class="c" x="18" y="66" width="12" height="12"/><rect class="c" x="18" y="82" width="12" height="12"/><rect class="c" x="18" y="98" width="12" height="12"/><rect class="c" x="34" y="2" width="12" height="12"/><rect class="c" x="34" y="18" width="12" height="12"/><rect class="c" x="34" y="34" width="12" height="12"/><rect class="c" x="34" y="50" width="12" height="12"/><rect class="c" x="34" y="66" width="12" height="12"/><rect class="c" x="34" y="82" width="12" height="12"/><rect class="c" x="34" y="98" width="12" height="12"/><rect class="c" x="50" y="2" width="12" height="12"/><rect class="c" x="50" y="18" width="12" height="12"/><rect class="c" x="50" y="34" width="12" height="12"/><rect class="c" x="50" y="50" width="12" height="12"/><rect class="c" x="50" y="66" width="12" height="12"/><rect class="c" x="50" y="82" width="12" height="12"/><rect class="c" x="50" y="98" width="12" height="12"/><rect class="c" x="66" y="2" width="12" height="12"/><rect class="c" x="66" y="18" width="12" height="12"/><rect class="c" x="66" y="34" width="12" height="12"/><rect class="c" x="66" y="50" width="12" height="12"/><rect class="c" x="66" y="66" width="12" height="12"/><rect class="c" x="66" y="82" width="12" height="12"/><rect class="c" x="66" y="98" width="12" height="12"/><rect class="c" x="82" y="2" width="12" height="12"/><rect class="c" x="82" y="18" width="12" height="12"/><rect class="c" x="82" y="34" width="12" height="12"/><rect class="c" x="82" y="50" width="12" height="12"/><rect class="c" x="82" y="66" width="12" height="12"/><rect class="c" x="82" y="82" width="12" height="12"/><rect class="c" x="82" y="98" width="12" height="12"/><rect class="c" x="98" y="2" width="12" height="12"/><rect class="c" x="98" y="18" width="12" height="12"/><rect class="c" x="98" y="34" width="12" height="12"/><rect class="c" x="98" y="50" width="12" height="12"/><rect class="c" x="98" y="66" width="12" height="12"/><rect class="c" x="98" y="82" width="12" height="12"/><rect class="c" x="98" y="98" width="12" height="12"/><rect class="c" x="114" y="2" width="12" height="12"/><rect class="c" x="114" y="18" width="12" height="12"/><rect class="c" x="114" y="34" width="12" height="12"/><rect class="c" x="114" y="50" width="12" height="12"/><rect class="c" x="114" y="66" width="12" height="12"/><rect class="c" x="114" y="82" width="12" height="12"/><rect class="c" x="114" y="98" width="12" height="12"/><rect class="c" x="130" y="2" width="12" height="12"/><rect class="c" x="130" y="18" width="12" height="12"/><rect class="c" x="130" y="34" width="12" height="12"/><rect class="c" x="130" y="50" width="12" height="12"/><rect class="c" x="130" y="66" width="12" height="12"/><rect class="c" x="130" y="82" width="12" height="12"/><rect class="c" x="130" y="98" width="12" height="12"/><rect class="c" x="146" y="2" width="12" height="12"/><rect class="c" x="146" y="18" width="12" height="12"/><rect class="c" x="146" y="34" width="12" height="12"/><rect class="c" x="146" y="50" width="12" height="12"/><rect class="c" x="146" y="66" width="12" height="12"/><rect class="c" x="146" y="82" width="12" height="12"/><rect class="c" x="146" y="98" width="12" height="12"/><rect class="c" x="162" y="2" width="12" height="12"/><rect class="c" x="162" y="18" width="12" height="12"/><rect class="c" x="162" y="34" width="12" height="12"/><rect class="c" x="162" y="50" width="12" height="12"/><rect class="c" x="162" y="66" width="12" height="12"/><rect class="c" x="162" y="82" width="12" height="12"/><rect class="c" x="162" y="98" width="12" height="12"/><rect class="c" x="178" y="2" width="12" height="12"/><rect class="c" x="178" y="18" width="12" height="12"/><rect class="c" x="178" y="34" width="12" height="12"/><rect class="c" x="178" y="50" width="12" height="12"/><rect class="c" x="178" y="66" width="12" height="12"/><rect class="c" x="178" y="82" width="12" height="12"/><rect class="c" x="178" y="98" width="12" height="12"/><rect class="c" x="194" y="2" width="12" height="12"/><rect class="c" x="194" y="18" width="12" height="12"/><rect class="c" x="194" y="34" width="12" height="12"/><rect class="c" x="194" y="50" width="12" height="12"/><rect class="c" x="194" y="66" width="12" height="12"/><rect class="c" x="194" y="82" width="12" height="12"/><rect class="c" x="194" y="98" width="12" height="12"/><rect class="c" x="210" y="2" width="12" height="12"/><rect class="c c0" x="210" y="18" width="12" height="12"/><rect class="c" x="210" y="34" width="12" height="12"/><rect class="c" x="210" y="50" width="12" height="12"/><rect class="c" x="210" y="66" width="12" height="12"/><rect class="c" x="210" y="82" width="12" height="12"/><rect class="c" x="210" y="98" width="12" height="12"/><rect class="c" x="226" y="2" width="12" height="12"/><rect class="c" x="226" y="18" width="12" height="12"/><rect class="c" x="226" y="34" width="12" height="12"/><rect class="c" x="226" y="50" width="12" height="12"/><rect class="c" x="226" y="66" width="12" height="12"/><rect class="c" x="226" y="82" width="12" height="12"/><rect class="c" x="226" y="98" width="12" height="12"/><rect class="c" x="242" y="2" width="12" height="12"/><rect class="c" x="242" y="18" width="12" height="12"/><rect class="c" x="242" y="34" width="12" height="12"/><rect class="c c1" x="242" y="50" width="12" height="12"/><rect class="c c2" x="242" y="66" width="12" height="12"/><rect class="c" x="242" y="82" width="12" height="12"/><rect class="c" x="242" y="98" width="12" height="12"/><rect class="c" x="258" y="2" width="12" height="12"/><rect class="c" x="258" y="18" width="12" height="12"/><rect class="c" x="258" y="34" width="12" height="12"/><rect class="c c3" x="258" y="50" width="12" height="12"/><rect class="c" x="258" y="66" width="12" height="12"/><rect class="c" x="258" y="82" width="12" height="12"/><rect class="c" x="258" y="98" width="12" height="12"/><rect class="c" x="274" y="2" width="12" height="12"/><rect class="c" x="274" y="18" width="12" height="12"/><rect class="c" x="274" y="34" width="12" height="12"/><rect class="c" x="274" y="50" width="12" height="12"/><rect class="c" x="274" y="66" width="12" height="12"/><rect class="c" x="274" y="82" width="12" height="12"/><rect class="c" x="274" y="98" width="12" height="12"/><rect class="c" x="290" y="2" width="12" height="12"/><rect class="c" x="290" y="18" width="12" height="12"/><rect class="c" x="290" y="34" width="12" height="12"/><rect class="c" x="290" y="50" width="12" height="12"/><rect class="c" x="290" y="66" width="12" height="12"/><rect class="c" x="290" y="82" width="12" height="12"/><rect class="c" x="290" y="98" width="12" height="12"/><rect class="c" x="306" y="2" width="12" height="12"/><rect class="c" x="306" y="18" width="12" height="12"/><rect class="c" x="306" y="34" width="12" height="12"/><rect class="c" x="306" y="50" width="12" height="12"/><rect class="c" x="306" y="66" width="12" height="12"/><rect class="c" x="306" y="82" width="12" height="12"/><rect class="c" x="306" y="98" width="12" height="12"/><rect class="c" x="322" y="2" width="12" height="12"/><rect class="c c4" x="322" y="18" width="12" height="12"/><rect class="c" x="322" y="34" width="12" height="12"/><rect class="c" x="322" y="50" width="12" height="12"/><rect class="c" x="322" y="66" width="12" height="12"/><rect class="c" x="322" y="82" width="12" height="12"/><rect class="c" x="322" y="98" width="12" height="12"/><rect class="c" x="338" y="2" width="12" height="12"/><rect class="c" x="338" y="18" width="12" height="12"/><rect class="c" x="338" y="34" width="12" height="12"/><rect class="c" x="338" y="50" width="12" height="12"/><rect class="c" x="338" y="66" width="12" height="12"/><rect class="c" x="338" y="82" width="12" height="12"/><rect class="c" x="338" y="98" width="12" height="12"/><rect class="c" x="354" y="2" width="12" height="12"/><rect class="c c5" x="354" y="18" width="12" height="12"/><rect class="c" x="354" y="34" width="12" height="12"/><rect class="c" x="354" y="50" width="12" height="12"/><rect class="c c6" x="354" y="66" width="12" height="12"/><rect class="c" x="354" y="82" width="12" height="12"/><rect class="c" x="354" y="98" width="12" height="12"/><rect class="c" x="370" y="2" width="12" height="12"/><rect class="c c7" x="370" y="18" width="12" height="12"/><rect class="c" x="370" y="34" width="12" height="12"/><rect class="c" x="370" y="50" width="12" height="12"/><rect class="c" x="370" y="66" width="12" height="12"/><rect class="c" x="370" y="82" width="12" height="12"/><rect class="c" x="370" y="98" width="12" height="12"/><rect class="c" x="386" y="2" width="12" height="12"/><rect class="c" x="386" y="18" width="12" height="12"/><rect class="c" x="386" y="34" width="12" height="12"/><rect class="c" x="386" y="50" width="12" height="12"/><rect class="c" x="386" y="66" width="12" height="12"/><rect class="c c8" x="386" y="82" width="12" height="12"/><rect class="c c9" x="386" y="98" width="12" height="12"/><rect class="c" x="402" y="2" width="12" height="12"/><rect class="c" x="402" y="18" width="12" height="12"/><rect class="c" x="402" y="34" width="12" height="12"/><rect class="c" x="402" y="50" width="12" height="12"/><rect class="c" x="402" y="66" width="12" height="12"/><rect class="c" x="402" y="82" width="12" height="12"/><rect class="c" x="402" y="98" width="12" height="12"/><rect class="c" x="418" y="2" width="12" height="12"/><rect class="c" x="418" y="18" width="12" height="12"/><rect class="c" x="418" y="34" width="12" height="12"/><rect class="c" x="418" y="50" width="12" height="12"/><rect class="c" x="418" y="66" width="12" height="12"/><rect class="c" x="418" y="82" width="12" height="12"/><rect class="c" x="418" y="98" width="12" height="12"/><rect class="c" x="434" y="2" width="12" height="12"/><rect class="c" x="434" y="18" width="12" height="12"/><rect class="c" x="434" y="34" width="12" height="12"/><rect class="c" x="434" y="50" width="12" height="12"/><rect class="c" x="434" y="66" width="12" height="12"/><rect class="c" x="434" y="82" width="12" height="12"/><rect class="c" x="434" y="98" width="12" height="12"/><rect class="c ca" x="450" y="2" width="12" height="12"/><rect class="c cb" x="450" y="18" width="12" height="12"/><rect class="c" x="450" y="34" width="12" height="12"/><rect class="c" x="450" y="50" width="12" height="12"/><rect class="c" x="450" y="66" width="12" height="12"/><rect class="c" x="450" y="82" width="12" height="12"/><rect class="c" x="450" y="98" width="12" height="12"/><rect class="c" x="466" y="2" width="12" height="12"/><rect class="c" x="466" y="18" width="12" height="12"/><rect class="c" x="466" y="34" width="12" height="12"/><rect class="c" x="466" y="50" width="12" height="12"/><rect class="c" x="466" y="66" width="12" height="12"/><rect class="c" x="466" y="82" width="12" height="12"/><rect class="c" x="466" y="98" width="12" height="12"/><rect class="c" x="482" y="2" width="12" height="12"/><rect class="c" x="482" y="18" width="12" height="12"/><rect class="c" x="482" y="34" width="12" height="12"/><rect class="c" x="482" y="50" width="12" height="12"/><rect class="c" x="482" y="66" width="12" height="12"/><rect class="c" x="482" y="82" width="12" height="12"/><rect class="c" x="482" y="98" width="12" height="12"/><rect class="c" x="498" y="2" width="12" height="12"/><rect class="c" x="498" y="18" width="12" height="12"/><rect class="c" x="498" y="34" width="12" height="12"/><rect class="c" x="498" y="50" width="12" height="12"/><rect class="c" x="498" y="66" width="12" height="12"/><rect class="c" x="498" y="82" width="12" height="12"/><rect class="c cc" x="498" y="98" width="12" height="12"/><rect class="c" x="514" y="2" width="12" height="12"/><rect class="c" x="514" y="18" width="12" height="12"/><rect class="c" x="514" y="34" width="12" height="12"/><rect class="c" x="514" y="50" width="12" height="12"/><rect class="c" x="514" y="66" width="12" height="12"/><rect class="c" x="514" y="82" width="12" height="12"/><rect class="c" x="514" y="98" width="12" height="12"/><rect class="c cd" x="530" y="2" width="12" height="12"/><rect class="c" x="530" y="18" width="12" height="12"/><rect class="c" x="530" y="34" width="12" height="12"/><rect class="c" x="530" y="50" width="12" height="12"/><rect class="c" x="530" y="66" width="12" height="12"/><rect class="c" x="530" y="82" width="12" height="12"/><rect class="c" x="530" y="98" width="12" height="12"/><rect class="c" x="546" y="2" width="12" height="12"/><rect class="c" x="546" y="18" width="12" height="12"/><rect class="c" x="546" y="34" width="12" height="12"/><rect class="c" x="546" y="50" width="12" height="12"/><rect class="c" x="546" y="66" width="12" height="12"/><rect class="c" x="546" y="82" width="12" height="12"/><rect class="c" x="546" y="98" width="12" height="12"/><rect class="c ce" x="562" y="2" width="12" height="12"/><rect class="c" x="562" y="18" width="12" height="12"/><rect class="c cf" x="562" y="34" width="12" height="12"/><rect class="c" x="562" y="50" width="12" height="12"/><rect class="c cg" x="562" y="66" width="12" height="12"/><rect class="c" x="562" y="82" width="12" height="12"/><rect class="c ch" x="562" y="98" width="12" height="12"/><rect class="c" x="578" y="2" width="12" height="12"/><rect class="c" x="578" y="18" width="12" height="12"/><rect class="c" x="578" y="34" width="12" height="12"/><rect class="c" x="578" y="50" width="12" height="12"/><rect class="c ci" x="578" y="66" width="12" height="12"/><rect class="c" x="578" y="82" width="12" height="12"/><rect class="c" x="578" y="98" width="12" height="12"/><rect class="c" x="594" y="2" width="12" height="12"/><rect class="c" x="594" y="18" width="12" height="12"/><rect class="c" x="594" y="34" width="12" height="12"/><rect class="c" x="594" y="50" width="12" height="12"/><rect class="c" x="594" y="66" width="12" height="12"/><rect class="c" x="594" y="82" width="12" height="12"/><rect class="c" x="594" y="98" width="12" height="12"/><rect class="c" x="610" y="2" width="12" height="12"/><rect class="c cj" x="610" y="18" width="12" height="12"/><rect class="c" x="610" y="34" width="12" height="12"/><rect class="c" x="610" y="50" width="12" height="12"/><rect class="c" x="610" y="66" width="12" height="12"/><rect class="c" x="610" y="82" width="12" height="12"/><rect class="c" x="610" y="98" width="12" height="12"/><rect class="c" x="626" y="2" width="12" height="12"/><rect class="c" x="626" y="18" width="12" height="12"/><rect class="c" x="626" y="34" width="12" height="12"/><rect class="c" x="626" y="50" width="12" height="12"/><rect class="c" x="626" y="66" width="12" height="12"/><rect class="c" x="626" y="82" width="12" height="12"/><rect class="c" x="626" y="98" width="12" height="12"/><rect class="c" x="642" y="2" width="12" height="12"/><rect class="c" x="642" y="18" width="12" height="12"/><rect class="c" x="642" y="34" width="12" height="12"/><rect class="c" x="642" y="50" width="12" height="12"/><rect class="c" x="642" y="66" width="12" height="12"/><rect class="c" x="642" y="82" width="12" height="12"/><rect class="c" x="642" y="98" width="12" height="12"/><rect class="c" x="658" y="2" width="12" height="12"/><rect class="c" x="658" y="18" width="12" height="12"/><rect class="c" x="658" y="34" width="12" height="12"/><rect class="c" x="658" y="50" width="12" height="12"/><rect class="c" x="658" y="66" width="12" height="12"/><rect class="c" x="658" y="82" width="12" height="12"/><rect class="c" x="658" y="98" width="12" height="12"/><rect class="c" x="674" y="2" width="12" height="12"/><rect class="c" x="674" y="18" width="12" height="12"/><rect class="c" x="674" y="34" width="12" height="12"/><rect class="c" x="674" y="50" width="12" height="12"/><rect class="c" x="674" y="66" width="12" height="12"/><rect class="c" x="674" y="82" width="12" height="12"/><rect class="c" x="674" y="98" width="12" height="12"/><rect class="c" x="690" y="2" width="12" height="12"/><rect class="c" x="690" y="18" width="12" height="12"/><rect class="c" x="690" y="34" width="12" height="12"/><rect class="c" x="690" y="50" width="12" height="12"/><rect class="c" x="690" y="66" width="12" height="12"/><rect class="c" x="690" y="82" width="12" height="12"/><rect class="c" x="690" y="98" width="12" height="12"/><rect class="c" x="706" y="2" width="12" height="12"/><rect class="c" x="706" y="18" width="12" height="12"/><rect class="c" x="706" y="34" width="12" height="12"/><rect class="c" x="706" y="50" width="12" height="12"/><rect class="c" x="706" y="66" width="12" height="12"/><rect class="c" x="706" y="82" width="12" height="12"/><rect class="c" x="706" y="98" width="12" height="12"/><rect class="c" x="722" y="2" width="12" height="12"/><rect class="c ck" x="722" y="18" width="12" height="12"/><rect class="c cl" x="722" y="34" width="12" height="12"/><rect class="c" x="722" y="50" width="12" height="12"/><rect class="c" x="722" y="66" width="12" height="12"/><rect class="c" x="722" y="82" width="12" height="12"/><rect class="c cm" x="722" y="98" width="12" height="12"/><rect class="c" x="738" y="2" width="12" height="12"/><rect class="c" x="738" y="18" width="12" height="12"/><rect class="c" x="738" y="34" width="12" height="12"/><rect class="c" x="738" y="50" width="12" height="12"/><rect class="c" x="738" y="66" width="12" height="12"/><rect class="c" x="738" y="82" width="12" height="12"/><rect class="c" x="738" y="98" width="12" height="12"/><rect class="c" x="754" y="2" width="12" height="12"/><rect class="c" x="754" y="18" width="12" height="12"/><rect class="c" x="754" y="34" width="12" height="12"/><rect class="c" x="754" y="50" width="12" height="12"/><rect class="c" x="754" y="66" width="12" height="12"/><rect class="c" x="754" y="82" width="12" height="12"/><rect class="c" x="754" y="98" width="12" height="12"/><rect class="c" x="770" y="2" width="12" height="12"/><rect class="c cn" x="770" y="18" width="12" height="12"/><rect class="c" x="770" y="34" width="12" height="12"/><rect class="c co" x="770" y="50" width="12" height="12"/><rect class="c" x="770" y="66" width="12" height="12"/><rect class="c" x="770" y="82" width="12" height="12"/><rect class="c" x="770" y="98" width="12" height="12"/><rect class="c" x="786" y="2" width="12" height="12"/><rect class="c" x="786" y="18" width="12" height="12"/><rect class="c" x="786" y="34" width="12" height="12"/><rect class="c" x="786" y="50" width="12" height="12"/><rect class="c" x="786" y="66" width="12" height="12"/><rect class="c" x="786" y="82" width="12" height="12"/><rect class="c" x="786" y="98" width="12" height="12"/><rect class="c" x="802" y="2" width="12" height="12"/><rect class="c" x="802" y="18" width="12" height="12"/><rect class="c cp" x="802" y="34" width="12" height="12"/><rect class="c" x="802" y="50" width="12" height="12"/><rect class="c" x="802" y="66" width="12" height="12"/><rect class="c" x="802" y="82" width="12" height="12"/><rect class="c" x="802" y="98" width="12" height="12"/><rect class="c" x="818" y="2" width="12" height="12"/><rect class="c" x="818" y="18" width="12" height="12"/><rect class="c" x="818" y="34" width="12" height="12"/><rect class="c" x="818" y="50" width="12" height="12"/><rect class="c" x="818" y="66" width="12" height="12"/><rect class="c" x="818" y="82" width="12" height="12"/><rect class="c" x="818" y="98" width="12" height="12"/><rect class="c" x="834" y="2" width="12" height="12"/><rect class="c" x="834" y="18" width="12" height="12"/><rect class="c" x="834" y="34" width="12" height="12"/><rect class="c" x="834" y="50" width="12" height="12"/><rect class="c" x="834" y="66" width="12" height="12"/><rect class="c cq" x="834" y="82" width="12" height="12"/><rect class="c cr" x="834" y="98" width="12" height="12"/><rect class="u u0" height="12" width="545.7" x="0.0" y="144"/><rect class="u u1" height="12" width="152.0" x="545.1" y="144"/><rect class="u u2" height="12" width="152.0" x="696.6" y="144"/><rect class="s s0" x="0.8" y="0.8" width="14.4" height="14.4" rx="4.5" ry="4.5"/><rect class="s s1" x="1.8" y="1.8" width="12.3" height="12.3" rx="4.1" ry="4.1"/><rect class="s s2" x="2.6" y="2.6" width="10.8" height="10.8" rx="3.6" ry="3.6"/><rect class="s s3" x="3.0" y="3.0" width="9.9" height="9.9" rx="3.3" ry="3.3"/></svg>